<?xml version="1.0" standalone="no"?>
<!DOCTYPE svg PUBLIC "-//W3C//DTD SVG 20010904//EN"
 "http://www.w3.org/TR/2001/REC-SVG-20010904/DTD/svg10.dtd">
<svg version="1.0" xmlns="http://www.w3.org/2000/svg"
 width="612.000000pt" height="408.000000pt" viewBox="0 0 612.000000 408.000000"
 preserveAspectRatio="xMidYMid meet">

<g transform="translate(0.000000,408.000000) scale(0.100000,-0.100000)"
fill="#000000" stroke="none">
<path d="M1872 2274 c-53 -27 -76 -69 -80 -144 -4 -78 17 -124 69 -152 73 -39
158 -15 189 55 21 47 19 57 -15 57 -16 0 -26 -7 -31 -22 -11 -38 -35 -58 -68
-58 -44 0 -74 24 -86 70 -31 114 76 210 143 130 30 -35 67 -41 67 -10 0 11
-13 34 -28 51 -35 39 -107 50 -160 23z"/>
<path d="M2842 2123 l3 -158 108 -3 107 -3 0 26 c0 25 -1 25 -80 25 l-80 0 0
135 0 135 -30 0 -31 0 3 -157z"/>
<path d="M3597 2273 c-4 -3 -7 -75 -7 -160 0 -146 1 -153 20 -153 11 0 23 -1
28 -2 4 -2 8 17 9 41 3 66 21 68 63 8 24 -35 43 -52 58 -53 37 -2 35 13 -7 74
-23 32 -41 62 -41 68 0 6 16 25 35 44 65 63 8 71 -60 9 -26 -24 -45 -36 -46
-28 0 8 -2 43 -4 78 -4 67 -25 98 -48 74z"/>
<path d="M2148 2193 c-21 -5 -51 -50 -43 -63 9 -15 43 -12 52 5 16 27 83 24
83 -4 0 -21 -10 -26 -78 -36 -69 -11 -95 -70 -49 -113 25 -23 69 -28 109 -13
16 6 29 5 42 -5 13 -9 24 -10 37 -3 22 11 25 35 7 41 -9 3 -13 29 -13 82 0 70
-3 80 -24 97 -22 18 -79 24 -123 12z m92 -148 c0 -30 -32 -49 -67 -40 -33 8
-28 46 7 56 48 13 60 10 60 -16z"/>
<path d="M2349 2166 c0 -17 -1 -87 -2 -156 l-2 -125 28 -3 c26 -3 27 -2 27 47
l0 49 38 -14 c77 -31 136 27 129 125 -3 46 -9 59 -36 83 -32 29 -81 37 -111
19 -8 -6 -19 -7 -24 -3 -28 17 -46 8 -47 -22z m158 -50 c26 -55 -1 -116 -52
-116 -31 0 -55 35 -55 79 0 43 24 71 62 71 22 0 32 -7 45 -34z"/>
<path d="M2638 2184 c-64 -34 -41 -104 42 -125 79 -20 95 -59 24 -59 -23 0
-38 6 -46 20 -17 26 -58 27 -58 1 0 -41 50 -71 110 -66 51 5 90 37 90 75 0 35
-23 55 -85 72 -62 17 -76 48 -22 48 22 0 37 -6 41 -15 6 -16 56 -21 56 -6 0
57 -89 90 -152 55z"/>
<path d="M3185 2194 c-5 -1 -23 -5 -38 -8 -61 -14 -90 -134 -47 -189 23 -29
74 -49 108 -42 49 9 62 17 83 51 28 46 22 115 -13 150 -23 23 -72 44 -93 38z
m46 -63 c18 -15 23 -28 23 -60 -2 -52 -18 -71 -60 -71 -54 0 -81 59 -53 113
23 42 53 48 90 18z"/>
<path d="M3374 2167 c-21 -18 -28 -35 -32 -77 -9 -94 42 -150 126 -137 56 9
112 87 62 87 -10 0 -30 -11 -44 -25 -31 -31 -41 -31 -71 0 -32 31 -34 86 -5
115 27 27 54 25 84 -6 15 -17 30 -25 40 -21 23 9 20 34 -9 62 -34 35 -112 35
-151 2z"/>
<path d="M1625 1458 c-8 -27 -66 -121 -77 -126 -5 -2 -8 -8 -8 -12 0 -11 -54
-93 -86 -133 -20 -24 -22 -31 -12 -53 25 -55 46 -58 378 -65 168 -3 844 -6
1503 -7 1272 -2 1228 -4 1266 42 14 17 1 45 -41 90 -10 11 -18 24 -18 28 0 9
-2 12 -48 68 -16 19 -35 52 -41 72 -7 21 -21 40 -32 43 -10 4 -19 13 -19 21 0
18 -34 18 -49 0 -38 -46 -301 -55 -1441 -49 -973 5 -1020 6 -1123 24 -56 10
-74 19 -100 46 -37 39 -43 40 -52 11z"/>
</g>
</svg>
